HIERARCHY
ROOT Root
{
	OFFSET 0.00000 0.00000 0.00000
	CHANNELS 6 Xposition Yposition Zposition Zrotation Xrotation Yrotation
	JOINT Hips
	{
		OFFSET 0 0 0	
		CHANNELS 3 Zrotation Xrotation Yrotation
		JOINT Spine
		{
			OFFSET 0 4 0	
			CHANNELS 3 Zrotation Xrotation Yrotation
			JOINT Spine1
			{
				OFFSET 0 19.4 0	
				CHANNELS 3 Zrotation Xrotation Yrotation
				JOINT Spine2
				{
					OFFSET 0 16.6 0	
					CHANNELS 3 Zrotation Xrotation Yrotation
					JOINT LeftCollar
					{
						OFFSET 0 10 0	
						CHANNELS 3 Zrotation Xrotation Yrotation
						JOINT LeftArm
						{
							OFFSET 15.6 -2 3	
							CHANNELS 3 Zrotation Xrotation Yrotation
							JOINT LeftForeArm
							{
								OFFSET 3.5 -27 -1	
								CHANNELS 3 Zrotation Xrotation Yrotation
								JOINT LeftHand
								{
									OFFSET 1 -27 1	
									CHANNELS 3 Zrotation Xrotation Yrotation
									End Site
									{
										OFFSET 0 -15 0
									}
								}
							}
						}
					}
					JOINT RightCollar
					{
						OFFSET 0 10 0	
						CHANNELS 3 Zrotation Xrotation Yrotation
						JOINT RightArm
						{
							OFFSET -15.6 -2 3	
							CHANNELS 3 Zrotation Xrotation Yrotation
							JOINT RightForeArm
							{
								OFFSET -3.5 -27 -1	
								CHANNELS 3 Zrotation Xrotation Yrotation
								JOINT RightHand
								{
									OFFSET -1 -27 1	
									CHANNELS 3 Zrotation Xrotation Yrotation
									End Site
									{
										OFFSET 0 -15 0
									}
								}
							}
						}
					}
					JOINT Neck
					{
						OFFSET 0 10 0	
						CHANNELS 3 Zrotation Xrotation Yrotation
						JOINT Head
						{
							OFFSET 0 12.7 3	
							CHANNELS 3 Zrotation Xrotation Yrotation
							End Site
							{
								OFFSET 0 12.7 3
							}
						}
					}
				}
			}
		}
	}
	JOINT LeftHip
	{
		OFFSET 0 0 0	
		CHANNELS 3 Zrotation Xrotation Yrotation
		JOINT LeftUpLeg
		{
			OFFSET 8.8 -6 0	
			CHANNELS 3 Zrotation Xrotation Yrotation
			JOINT LeftLeg
			{
				OFFSET 0 -39 2	
				CHANNELS 3 Zrotation Xrotation Yrotation
				JOINT LeftFoot
				{
					OFFSET 0 -43 -2	
					CHANNELS 3 Zrotation Xrotation Yrotation
					JOINT LeftFootFront
					{
						OFFSET 0 -7 8.5	
						CHANNELS 3 Zrotation Xrotation Yrotation
						End Site
						{
							OFFSET 0 -0.5 9
						}
					}
				}
				JOINT LeftHeel
				{
					OFFSET 0 -43 -2	
					CHANNELS 3 Zrotation Xrotation Yrotation
					End Site
					{
						OFFSET 0 -7.5 -5
					}
				}
			}
		}
	}
	JOINT RightHip
	{
		OFFSET 0 0 0	
		CHANNELS 3 Zrotation Xrotation Yrotation
		JOINT RightUpLeg
		{
			OFFSET -8.8 -6 0	
			CHANNELS 3 Zrotation Xrotation Yrotation
			JOINT RightLeg
			{
				OFFSET 0 -39 2	
				CHANNELS 3 Zrotation Xrotation Yrotation
				JOINT RightFoot
				{
					OFFSET 0 -43 -2	
					CHANNELS 3 Zrotation Xrotation Yrotation
					JOINT RightFootFront
					{
						OFFSET 0 -7 8.5	
						CHANNELS 3 Zrotation Xrotation Yrotation
						End Site
						{
							OFFSET 0 -0.5 9
						}
					}
				}
				JOINT RightHeel
				{
					OFFSET 0 -43 -2	
					CHANNELS 3 Zrotation Xrotation Yrotation
					End Site
					{
						OFFSET 0 -7.5 -5
					}
				}
			}
		}
	}
}
MOTION
Frames: 7
Frame Time: 0.05
15.517 61.044 -24.533 -0 0 -0 -13.859 13.1 24.214 2.7711 -3.0294 1.6042 2.7711 -3.0294 1.6042 2.3217 -2.55 1.3375 -0 0 -0 1.5335 -2.93 3.2456 -72.243 -66.671 -75.714 51.813 -3.4433 -41.495 -0 0 -0 -14.147 -24.724 -35.243 69.777 -39.358 19.656 -30.771 -1.4925 0.72341 -3.594 2.0017 -2.075 -3.594 2.0017 -2.075 -13.859 13.1 24.214 100.59 -65.888 79.594 -75.222 40.933 50.264 24.819 11.072 26.975 -0.031163 -5.3936 0.011507 -0 0 -0 -13.859 13.1 24.214 177.14 -71.723 153.5 -48.028 82.569 42.23 -9.9469 -3.7602 -6.9705 -0.1188 0.861 0.056644 -0 0 -0 
15.493 61.008 -24.528 -0 0 -0 -13.811 13.119 24.381 2.8133 -2.9636 1.5141 2.8133 -2.9636 1.5141 2.3575 -2.4945 1.2619 -0 0 -0 1.5627 -2.9609 2.8358 -71.293 -66.764 -74.925 52.358 -3.7037 -40.915 -0 0 -0 -14.808 -25.097 -34.225 67.263 -39.456 18.632 -27.335 -7.7277 -0.73755 -3.4326 2.1045 -2.382 -3.4326 2.1045 -2.382 -13.811 13.119 24.381 101.02 -66.051 80.128 -75.266 41.056 50.431 24.754 11.079 26.906 -0.01367 -5.3165 -0.0020909 -0 0 -0 -13.811 13.119 24.381 178.6 -72.082 154.42 -49.503 82.318 44.163 -9.9266 -4.3119 -7.0513 0.032472 -0.22415 -0.020239 -0 0 -0 
15.486 60.965 -24.542 -0 0 -0 -13.759 12.986 24.348 2.8869 -2.9029 1.4644 2.8869 -2.9029 1.4644 2.4197 -2.4435 1.2201 -0 0 -0 1.5149 -2.8757 2.5367 -71.105 -66.787 -74.764 52.674 -3.5789 -41.001 -0 0 -0 -15.426 -25.507 -33.159 63.218 -39.685 15.732 -24.337 -15.295 -0.35121 -3.3585 2.1559 -2.6002 -3.3585 2.1559 -2.6002 -13.759 12.986 24.348 101.11 -66.116 80.394 -75.263 41.316 50.519 24.758 11.09 26.884 -0.0081094 -5.221 -0.0011163 -0 0 -0 -13.759 12.986 24.348 178.98 -72.368 154.85 -48.632 82.591 43.266 -9.7859 -5.1725 -6.8887 0.014644 -0.57119 -0.066084 -0 0 -0 
15.499 60.926 -24.558 -0 0 -0 -13.716 12.856 24.255 2.8652 -2.9036 1.4881 2.8652 -2.9036 1.4881 2.4014 -2.4441 1.2401 -0 0 -0 1.5808 -2.7532 2.425 -71.455 -66.52 -75.014 52.694 -3.4953 -41.438 -0 0 -0 -15.588 -26.343 -33.673 60.142 -38.403 11.645 -23.085 -17.799 0.86347 -3.2697 2.1637 -2.7763 -3.2697 2.1637 -2.7763 -13.716 12.856 24.255 100.97 -66.117 80.291 -75.283 41.411 50.596 24.793 11.057 26.883 -0.053421 -5.1676 -0.00098703 -0 0 -0 -13.716 12.856 24.255 179.06 -72.473 155.27 -46.894 82.989 41.279 -9.5539 -5.7696 -6.5869 0.033198 0.098899 0.017171 -0 0 -0 
15.529 60.901 -24.56 -0 0 -0 -13.708 12.855 24.256 2.8509 -2.9698 1.4065 2.8509 -2.9698 1.4065 2.3895 -2.4994 1.1714 -0 0 -0 1.5884 -2.6382 2.6819 -71.654 -66.222 -75.111 52.561 -3.5391 -41.854 -0 0 -0 -15.318 -26.172 -33.872 60.763 -37.22 10.897 -26.236 -13.396 1.02 -3.2381 2.0507 -2.7828 -3.2381 2.0507 -2.7828 -13.708 12.855 24.256 101.09 -66.158 80.469 -75.351 41.485 50.731 24.787 10.968 26.867 -0.0060893 -5.1649 0.0076977 -0 0 -0 -13.708 12.855 24.256 179.38 -72.583 155.3 -48.447 82.862 42.776 -9.3393 -6.08 -6.3903 0.038567 0.23093 0.035369 -0 0 -0 
15.567 60.894 -24.543 -0 0 -0 -13.762 12.934 24.26 2.874 -2.9209 1.4233 2.874 -2.9209 1.4233 2.4089 -2.4584 1.1855 -0 0 -0 1.4202 -2.8999 2.812 -71.766 -66.107 -75.206 52.271 -3.6199 -42.193 -0 0 -0 -15.111 -24.289 -34.243 66.095 -39.228 16.892 -30.091 -5.5167 -0.26657 -3.3503 1.5825 -2.8561 -3.3503 1.5825 -2.8561 -13.762 12.934 24.26 101.4 -66.194 80.751 -75.436 41.53 50.881 24.787 10.863 26.894 0.036003 -5.198 0.016749 -0 0 -0 -13.762 12.934 24.26 179.46 -72.62 155.17 -49.385 82.816 43.669 -9.2071 -6.3877 -6.2753 0.02191 -0.1343 -0.016768 -0 0 -0 
15.605 60.901 -24.509 -0 0 -0 -13.849 13.038 24.249 2.9054 -2.9448 1.4707 2.9054 -2.9448 1.4707 2.4351 -2.4787 1.2252 -0 0 -0 1.4448 -2.7532 3.0711 -72.07 -66.04 -75.466 52.012 -3.7295 -42.153 -0 0 -0 -15.326 -21.972 -34.58 73.057 -42.102 22.21 -33.092 3.4388 1.1504 -3.5818 1.3378 -2.8732 -3.5818 1.3378 -2.8732 -13.849 13.038 24.249 101.53 -66.216 80.723 -75.48 41.455 50.988 24.797 10.738 26.941 0.021429 -5.2703 0.010631 -0 0 -0 -13.849 13.038 24.249 179.38 -72.527 155.12 -48.997 82.937 43.207 -9.1145 -6.6914 -6.225 0.013171 -0.12585 -0.0083802 -0 0 -0 
